<svg width="60" height="60" viewBox="0 0 60 60" fill="none" xmlns="http://www.w3.org/2000/svg">
<rect width="60" height="60" fill="#40467C"/>
<path d="M32.2407 46.0626H27.1062C26.2485 46.0626 25.5509 45.365 25.5509 44.5073V32.9261H22.5553C21.6977 32.9261 21 32.2282 21 31.3708V26.4083C21 25.5506 21.6977 24.853 22.5553 24.853H25.5509V22.3679C25.5509 19.9039 26.3246 17.8075 27.7882 16.3058C29.2583 14.7972 31.3129 14 33.7297 14L37.6455 14.0064C38.5017 14.0078 39.1981 14.7055 39.1981 15.5616V20.1693C39.1981 21.0269 38.5007 21.7246 37.6433 21.7246L35.0068 21.7255C34.2028 21.7255 33.998 21.8867 33.9543 21.9362C33.8821 22.0181 33.7962 22.2498 33.7962 22.8894V24.8527H37.4452C37.7199 24.8527 37.9861 24.9205 38.2148 25.0482C38.7082 25.3239 39.0149 25.8452 39.0149 26.4085L39.013 31.3711C39.013 32.2282 38.3153 32.9259 37.4577 32.9259H33.7962V44.5073C33.7962 45.365 33.0983 46.0626 32.2407 46.0626ZM27.4305 44.183H31.9163V32.0846C31.9163 31.512 32.3823 31.0462 32.9547 31.0462H37.1333L37.135 26.7326H32.9545C32.3821 26.7326 31.9163 26.2669 31.9163 25.6942V22.8894C31.9163 22.1551 31.9909 21.32 32.5453 20.6923C33.215 19.9335 34.2705 19.8459 35.0064 19.8459L37.3185 19.8449V15.8855L33.7282 15.8796C29.8442 15.8796 27.4305 18.3659 27.4305 22.3679V25.6942C27.4305 26.2666 26.9648 26.7326 26.3924 26.7326H22.8796V31.0462H26.3924C26.9648 31.0462 27.4305 31.512 27.4305 32.0846V44.183ZM37.6419 15.886H37.6421H37.6419Z" fill="white"/>
</svg>
