<svg width="60" height="60" viewBox="0 0 60 60" fill="none" xmlns="http://www.w3.org/2000/svg">
<rect width="60" height="60" fill="#40467C"/>
<path d="M36.8793 15H23.1207C18.6429 15 15 18.6429 15 23.1207V36.8795C15 41.3571 18.6429 45 23.1207 45H36.8795C41.3571 45 45 41.3571 45 36.8795V23.1207C45 18.6429 41.3571 15 36.8793 15ZM43.2413 36.8795C43.2413 40.3873 40.3873 43.2413 36.8793 43.2413H23.1207C19.6127 43.2413 16.7587 40.3873 16.7587 36.8795V23.1207C16.7587 19.6127 19.6127 16.7587 23.1207 16.7587H36.8795C40.3873 16.7587 43.2413 19.6127 43.2413 23.1207V36.8795Z" fill="white"/>
<path d="M30 21.7971C25.4768 21.7971 21.7971 25.4768 21.7971 30C21.7971 34.5232 25.4768 38.2029 30 38.2029C34.5232 38.2029 38.2029 34.5232 38.2029 30C38.2029 25.4768 34.5232 21.7971 30 21.7971ZM30 36.4442C26.4468 36.4442 23.5558 33.5534 23.5558 30C23.5558 26.4468 26.4468 23.5558 30 23.5558C33.5534 23.5558 36.4442 26.4468 36.4442 30C36.4442 33.5534 33.5534 36.4442 30 36.4442Z" fill="white"/>
<path d="M38.399 18.8839C37.0624 18.8839 35.9752 19.9713 35.9752 21.3078C35.9752 22.6444 37.0624 23.7318 38.399 23.7318C39.7357 23.7318 40.8231 22.6444 40.8231 21.3078C40.8231 19.9711 39.7357 18.8839 38.399 18.8839ZM38.399 21.9729C38.0324 21.9729 37.7339 21.6744 37.7339 21.3078C37.7339 20.9409 38.0324 20.6426 38.399 20.6426C38.7659 20.6426 39.0644 20.9409 39.0644 21.3078C39.0644 21.6744 38.7659 21.9729 38.399 21.9729Z" fill="white"/>
</svg>
