<svg width="129" height="40" viewBox="0 0 129 40" fill="none" xmlns="http://www.w3.org/2000/svg">
<path d="M22.7093 30.5831C22.2721 30.8746 21.677 31.2025 20.9241 31.5669C20.1711 31.9312 19.2845 32.247 18.2644 32.5142C17.2686 32.7571 16.1756 32.8665 14.9854 32.8422C12.9208 32.8179 11.0749 32.4535 9.44752 31.749C7.82016 31.0446 6.42355 30.0851 5.25768 28.8705C4.11609 27.6316 3.24169 26.2227 2.63447 24.6438C2.02724 23.0648 1.72363 21.3766 1.72363 19.579C1.72363 17.6114 2.03939 15.8017 2.6709 14.1499C3.3267 12.4737 4.23754 11.0284 5.40341 9.81382C6.56928 8.57496 7.9416 7.61544 9.52039 6.93528C11.1235 6.25512 12.8723 5.91504 14.7668 5.91504C16.3456 5.91504 17.7786 6.13366 19.0659 6.57091C20.3533 6.98386 21.4584 7.46969 22.3814 8.0284L20.9605 11.3442C20.2318 10.8584 19.3453 10.3968 18.3008 9.95957C17.2564 9.52233 16.1148 9.3037 14.8761 9.3037C13.5888 9.3037 12.3743 9.57091 11.2328 10.1053C10.0912 10.6154 9.08319 11.332 8.20878 12.2551C7.33438 13.1539 6.64215 14.2227 6.13208 15.4616C5.6463 16.6762 5.40341 17.9879 5.40341 19.3968C5.40341 21.2916 5.79203 23.0041 6.56928 24.5345C7.37081 26.0405 8.48811 27.2308 9.92115 28.1053C11.3785 28.9798 13.0787 29.4171 15.0218 29.4171C16.382 29.4171 17.5722 29.2227 18.5923 28.8341C19.6367 28.4211 20.499 27.9474 21.1791 27.413L22.7093 30.5831Z" fill="white"/>
<path d="M27.8222 17.4656H31.2105V32.5507H27.8222V17.4656ZM27.5671 12.0365C27.5671 11.4778 27.7736 11.0284 28.1865 10.6883C28.6237 10.3239 29.0973 10.1418 29.6074 10.1418C30.1175 10.1418 30.579 10.3239 30.9919 10.6883C31.4048 11.0284 31.6112 11.4778 31.6112 12.0365C31.6112 12.5952 31.4048 13.0567 30.9919 13.4211C30.579 13.7612 30.1175 13.9312 29.6074 13.9312C29.0973 13.9312 28.6237 13.7612 28.1865 13.4211C27.7736 13.0567 27.5671 12.5952 27.5671 12.0365Z" fill="white"/>
<path d="M40.1688 17.4656L40.3874 20.3806C40.8975 19.3118 41.6869 18.4616 42.7556 17.83C43.8243 17.1984 45.0631 16.8826 46.4718 16.8826C47.8806 16.8826 49.0343 17.3077 49.933 18.158C50.856 18.9839 51.3417 20.0648 51.3903 21.4009V32.5507H47.9656V22.5669C47.917 21.7652 47.662 21.1094 47.2005 20.5992C46.7633 20.0891 46.071 19.8219 45.1238 19.7976C43.8122 19.7976 42.707 20.332 41.8083 21.4009C40.9339 22.4454 40.4967 23.8057 40.4967 25.4818V32.5507H37.1084V17.4656H40.1688Z" fill="white"/>
<path d="M64.2417 32.915C62.5414 32.915 61.0598 32.575 59.7968 31.8948C58.558 31.1903 57.5986 30.2308 56.9185 29.0163C56.2627 27.8017 55.9348 26.4292 55.9348 24.8988C55.9348 23.4171 56.2992 22.0689 57.0278 20.8543C57.7808 19.6154 58.7888 18.6438 60.0518 17.9393C61.3391 17.2106 62.76 16.8462 64.3145 16.8462C66.3062 16.8462 67.9579 17.4292 69.2695 18.5952C70.5811 19.7612 71.4798 21.3644 71.9655 23.4049L60.0154 27.5952C60.4283 28.3482 61.0112 28.9434 61.7642 29.3806C62.5171 29.7936 63.3672 30.0001 64.3145 30.0001C64.9946 30.0001 65.6383 29.8786 66.2455 29.6357C66.8527 29.3928 67.4357 29.077 67.9943 28.6883L69.5609 31.2025C68.7837 31.7126 67.9214 32.1256 66.9742 32.4414C66.0512 32.7571 65.1403 32.915 64.2417 32.915ZM59.2867 24.7167C59.2624 25.0082 59.2746 25.2875 59.3231 25.5547L68.1036 22.3118C67.7636 21.5831 67.2656 20.9393 66.6098 20.3806C65.9783 19.8219 65.1282 19.5426 64.0595 19.5426C62.675 19.5426 61.5334 20.0284 60.6347 21.0001C59.736 21.9717 59.2867 23.2106 59.2867 24.7167Z" fill="white"/>
<path d="M79.2351 17.4656L79.4538 20.3442C80.0367 19.2511 80.8261 18.4009 81.8219 17.7936C82.8421 17.162 84.0079 16.8462 85.3195 16.8462C86.5583 16.8462 87.5905 17.1377 88.4164 17.7207C89.2665 18.3037 89.7887 19.0932 89.983 20.0891C90.5902 19.0689 91.3796 18.2794 92.3512 17.7207C93.347 17.1377 94.4036 16.8462 95.5209 16.8462C96.9782 16.8462 98.132 17.2713 98.9821 18.1215C99.8565 18.9717 100.318 20.0527 100.367 21.3644V32.5507H96.9782V22.6397C96.9297 21.8624 96.7232 21.2187 96.3589 20.7086C96.0188 20.1741 95.4237 19.8826 94.5736 19.8341C93.6749 19.8341 92.8855 20.1013 92.2055 20.6357C91.5254 21.1458 90.991 21.826 90.6024 22.6762C90.2138 23.5264 90.0073 24.4252 89.983 25.3725V32.5507H86.5583V22.6397C86.534 21.8624 86.3275 21.2187 85.9389 20.7086C85.5746 20.1741 84.9552 19.8826 84.0808 19.8341C83.2064 19.8341 82.4291 20.1013 81.7491 20.6357C81.069 21.1458 80.5346 21.826 80.146 22.6762C79.7574 23.5264 79.563 24.4373 79.563 25.409V32.5507H76.1747V17.4656H79.2351Z" fill="white"/>
<path d="M112.542 32.915C111.109 32.915 109.81 32.6114 108.644 32.0041C107.502 31.3968 106.592 30.5102 105.912 29.3442C105.256 28.1539 104.928 26.7086 104.928 25.0082C104.928 23.3078 105.268 21.8503 105.948 20.6357C106.652 19.4211 107.587 18.4859 108.753 17.83C109.944 17.1741 111.243 16.8462 112.652 16.8462C114.012 16.8462 115.166 17.1377 116.113 17.7207C117.06 18.3037 117.801 19.0082 118.335 19.8341L118.59 17.4656H121.724V32.5507H118.335V30.0729C118.044 30.4616 117.619 30.8746 117.06 31.3118C116.526 31.749 115.87 32.1256 115.093 32.4414C114.34 32.7571 113.49 32.915 112.542 32.915ZM113.453 30.1094C114.692 30.1094 115.749 29.7693 116.623 29.0891C117.497 28.3847 118.068 27.4373 118.335 26.247V23.2592C118.044 22.2146 117.437 21.3523 116.514 20.6721C115.591 19.992 114.534 19.6519 113.344 19.6519C112.421 19.6519 111.583 19.8705 110.83 20.3077C110.077 20.745 109.47 21.3523 109.008 22.1296C108.571 22.9069 108.353 23.8057 108.353 24.826C108.353 25.8219 108.583 26.7207 109.045 27.5223C109.506 28.2997 110.126 28.9312 110.903 29.4171C111.68 29.8786 112.53 30.1094 113.453 30.1094Z" fill="white"/>
<path d="M24.2496 20.0828L14.7759 27.2427V19.9123V12.582L24.2496 20.0828Z" fill="#40467C"/>
</svg>
