<svg width="60" height="60" viewBox="0 0 60 60" fill="none" xmlns="http://www.w3.org/2000/svg">
<rect width="60" height="60" fill="#40467C"/>
<path d="M34.9254 28.5619L27.8559 24.6938C27.4494 24.4714 26.9689 24.4797 26.5705 24.7157C26.1718 24.9521 25.934 25.3695 25.934 25.8329V33.5028C25.934 33.964 26.1704 34.3807 26.5664 34.6173C26.7731 34.7408 27.0024 34.8029 27.2321 34.8029C27.4426 34.8029 27.6535 34.7509 27.8476 34.6464L34.9174 30.8449C35.3371 30.619 35.599 30.1828 35.601 29.706C35.6027 29.2291 35.3439 28.7909 34.9254 28.5619ZM27.8093 32.538V26.8056L33.0929 29.6967L27.8093 32.538Z" fill="white"/>
<path d="M45.7645 23.5954L45.7631 23.5808C45.736 23.3232 45.4662 21.0322 44.3524 19.8669C43.0651 18.4963 41.6056 18.3298 40.9037 18.25C40.8456 18.2434 40.7924 18.2373 40.7448 18.231L40.6889 18.2251C36.4584 17.9175 30.0695 17.8755 30.0056 17.8752L29.9999 17.875L29.9943 17.8752C29.9304 17.8755 23.5415 17.9175 19.2729 18.2251L19.2165 18.231C19.1711 18.2371 19.1211 18.2427 19.0666 18.249C18.3728 18.3291 16.9289 18.4958 15.6379 19.916C14.5771 21.0688 14.2705 23.3108 14.239 23.5627L14.2354 23.5954C14.2258 23.7026 14 26.2541 14 28.8156V31.2102C14 33.7717 14.2258 36.3232 14.2354 36.4306L14.2371 36.4467C14.2642 36.7001 14.5337 38.9491 15.6423 40.1149C16.8528 41.4396 18.3833 41.6149 19.2065 41.7091C19.3366 41.724 19.4487 41.7367 19.5251 41.7502L19.5991 41.7604C22.0417 41.9928 29.7001 42.1073 30.0248 42.112L30.0346 42.1122L30.0444 42.112C30.1083 42.1117 36.497 42.0697 40.7274 41.7621L40.7833 41.7563C40.8368 41.7492 40.8969 41.7428 40.9628 41.736C41.6527 41.6627 43.0888 41.5106 44.3619 40.1098C45.4227 38.9567 45.7296 36.7148 45.7609 36.4631L45.7645 36.4303C45.774 36.3229 46.0001 33.7717 46.0001 31.2102V28.8156C45.9999 26.2541 45.774 23.7029 45.7645 23.5954ZM44.1246 31.2102C44.1246 33.581 43.9176 36.0226 43.8981 36.2468C43.8185 36.8642 43.495 38.2826 42.9782 38.8444C42.1813 39.7211 41.3627 39.808 40.765 39.8713C40.6928 39.8788 40.6259 39.8861 40.5653 39.8937C36.4735 40.1896 30.3259 40.235 30.0427 40.2367C29.725 40.2321 22.1787 40.1166 19.8105 39.8966C19.6892 39.8769 19.5581 39.8617 19.4199 39.8461C18.719 39.7658 17.7595 39.6559 17.0217 38.8444L17.0044 38.8258C16.4966 38.2968 16.1824 36.9704 16.1025 36.2541C16.0876 36.0846 15.8752 33.6142 15.8752 31.2102V28.8156C15.8752 26.4475 16.0818 24.0085 16.1018 23.7798C16.1968 23.0525 16.5264 21.72 17.0217 21.1814C17.843 20.2781 18.709 20.178 19.2817 20.1118C19.3364 20.1055 19.3874 20.0996 19.4345 20.0935C23.5859 19.7961 29.7778 19.7519 29.9999 19.7502C30.2221 19.7517 36.4118 19.7961 40.5263 20.0935C40.5768 20.0998 40.632 20.1062 40.6913 20.113C41.2804 20.1802 42.1708 20.2817 42.9879 21.1533L42.9955 21.1614C43.5033 21.6904 43.8175 23.04 43.8973 23.7707C43.9115 23.9306 44.1246 26.4065 44.1246 28.8156V31.2102Z" fill="white"/>
</svg>
